# xmcd CD database file
#
# Track frame offsets:
#	150
#	102887
#	149047
#
# Disc length: 2512 seconds
#
# Revision: 1
# Processed by: cddbd v1.5.2PL0 Copyright (c) Steve Scherf et al.
# Submitted via: CDex 1.51
#
DISCID=2709ce03
DTITLE=Keith Jarrett - Death and the Flower
DYEAR=1974
DGENRE=Jazz
TTITLE0=Death and the Flower
TTITLE1=Prayer
TTITLE2=Great Bird
EXTD=YEAR: 1974
EXTT0=
EXTT1=
EXTT2=
PLAYORDER=
